<?xml version="1.0" encoding="utf-8"?>
<!-- Generator: Adobe Illustrator 16.0.0, SVG Export Plug-In . SVG Version: 6.00 Build 0)  -->
<!DOCTYPE svg PUBLIC "-//W3C//DTD SVG 1.1//EN" "http://www.w3.org/Graphics/SVG/1.1/DTD/svg11.dtd">
<svg version="1.1" id="Calque_1" xmlns="http://www.w3.org/2000/svg" xmlns:xlink="http://www.w3.org/1999/xlink" x="0px" y="0px"
	 width="137px" height="117.81px" viewBox="410.907 220.444 137 117.81" enable-background="new 410.907 220.444 137 117.81"
	 xml:space="preserve">
<g>
	<path fill="#FF2900" d="M538.197,284.129c0.005-6.408,0.009-12.816,0-19.226c-0.01-5.977-2.947-8.943-8.98-9.07
		c-3.264-0.068-6.531-0.054-9.797-0.039c-1.365,0.006-2.729,0.012-4.094,0.012l-36.67-0.004c-10.824,0-21.649,0.002-32.474,0.011
		c-6.101,0.006-12.079,0.088-17.124,0.168c-5.509,0.087-8.434,3.068-8.458,8.621c-0.024,5.589-0.02,11.177-0.015,16.766
		c0.003,3.124,0.005,6.246,0.003,9.372l0.027,29.024c0.119,4.964,3.272,8.234,8.229,8.234h0.017c9.96,0,19.92-0.216,29.88-0.231
		c23.701-0.04,47.355-0.172,71.119-0.134c2.402,0,4.479-0.858,6.006-2.395c1.554-1.563,2.4-3.762,2.387-6.148
		C538.181,307.445,538.189,295.581,538.197,284.129z M425.132,297.499c-0.062-2.255-0.125-4.587-0.139-6.875
		c-0.035-5.65-0.027-11.3-0.02-16.95l0.007-6.72l-0.004-0.542c-0.004-0.542-0.009-1.056,0.031-1.559
		c0.25-3.21,1.398-4.307,4.55-4.348c4.019-0.052,8.033-0.042,12.055-0.033l4.533,0.007c27.033,0.001,54.066,0.004,81.099,0.01
		l1.255-0.006c0.489,0,1.065,0.009,1.631,0.068c2.149,0.228,3.095,1.104,3.486,3.238c0.123,0.663,0.187,1.33,0.188,1.98
		c0.018,9.161,0.02,18.322,0.011,27.483l-0.016,14.174l0.006,1.915c0.01,3.021,0.021,6.145-0.084,9.205
		c-0.118,3.489-1.191,4.438-4.79,4.466c-6.406,0.049-12.911-0.016-18.429-0.016h-4.15c-19.514,0-39.026,0.054-58.541,0.041
		l-16.025,0.024l-1.346,0.025c-0.353,0-0.703,0.004-1.055-0.015c-3.058-0.15-4.021-1.021-4.124-3.734
		c-0.114-3.063-0.073-6.192-0.032-9.223c0.027-1.979,0.054-3.958,0.039-5.938C425.253,301.954,425.192,299.728,425.132,297.499z
		 M428.847,326.623L428.847,326.623L428.847,326.623L428.847,326.623z"/>
	<path fill="#FF2900" d="M547.883,252.455l0.006-15.433l0.006-0.845c0.01-0.812,0.018-1.651-0.043-2.49
		c-0.262-3.735-2.632-6.082-6.341-6.272c-0.948-0.049-1.898-0.039-2.853-0.027c-0.865,0.01-1.732,0.022-2.592-0.018
		c-1.113-0.051-1.921,0.215-2.476,0.795c-0.55,0.573-0.792,1.411-0.741,2.556c0.059,1.343,0.057,2.554-0.008,4.043
		c-0.153,3.688-2.98,4.235-5.327,4.235h-0.102c-2.252,0-4.964-0.601-5.097-4.299c-0.044-1.226-0.039-2.369-0.035-3.586l0.002-1.309
		c0-1.667-0.998-2.807-2.67-2.807h-5.582c-3.49,0-6.98,0.199-10.483,0.188c-0.887,0-1.583,0.35-2.069,0.837
		c-0.487,0.49-0.733,1.243-0.73,2.141l0.009,1.147c0.012,1.313,0.024,2.684-0.055,3.994c-0.157,2.583-2.093,4.13-5.224,4.13
		c-1.861-0.009-5.021-0.55-5.269-4.101c-0.06-0.848-0.049-1.692-0.038-2.589c0.005-0.478,0.011-0.954,0.006-1.431
		c-0.035-3.44-0.504-3.918-3.854-3.928l-0.769-0.002c-3.558-0.013-7.116-0.026-10.676,0.008l-0.681,0.003
		c-0.435,0-0.827-0.004-1.184-0.007l-0.822-0.005c-1.276,0-2.23,0.05-2.882,0.705c-0.721,0.725-0.519,1.738-0.509,3.756
		c0.003,0.489,0.196,1.047,0.196,1.684v0.54c0,0.267-0.194,0.531-0.204,0.798c-0.101,2.951-2.086,4.577-5.429,4.577
		c-2.313-0.003-5.143-0.817-5.248-4.683c-0.037-1.375-0.072-2.833-0.06-4.592c0.008-0.878-0.244-1.568-0.722-2.049
		c-0.491-0.495-1.185-0.735-2.131-0.735c-5.258,0.021-10.483,0.026-15.815-0.008c-0.955,0-1.666,0.25-2.171,0.764
		c-0.511,0.521-0.751,1.249-0.733,2.231c0.023,1.453,0.039,3.012-0.017,4.575c-0.104,2.982-1.894,4.494-5.363,4.494
		c-2.271-0.01-5.009-0.79-5.164-4.449c-0.031-0.732-0.022-1.467-0.015-2.2c0.004-0.341,0.008-0.683,0.008-1.022
		c0.002-3.923-0.433-4.374-4.237-4.388l-1.021-0.001c-0.661,0-1.322,0.002-1.983,0.005c-5.455,0.031-7.783,2.334-7.784,7.701
		c-0.006,31.752-0.006,63.351,0.001,95.103c0.001,5.873,2.1,7.806,8.019,7.806h16.189l44.229,0.149l31.623,0.077
		c9.87,0,19.742,0.036,29.612,0.028c4.763-0.006,7.138-2.091,7.261-6.44l0.063-40.374
		C547.869,278.443,547.876,265.236,547.883,252.455z M539.965,232.091c3.232,0,3.272,0.279,3.274,2.819
		c0.018,12.581-0.02,25.161-0.021,37.741l-0.031,33.634c0.069,6.877,0.038,13.875,0.016,20.644l-0.018,3.568
		c-0.009,3.006-0.099,3.093-3.14,3.101c-3.719,0.01-7.438,0.211-11.155,0.211L512.826,334h-92.824c-1.905,0-3.55-0.198-3.98-0.62
		c-0.421-0.413-0.422-2.114-0.422-3.973l0.166-30.968L416,236.599v-0.423c0-0.773-0.202-1.504-0.156-2.236
		c0.076-1.201,0.511-1.728,1.751-1.818c0.482-0.038,0.918-0.038,1.403-0.039l0.526-0.001c0.465,0,1.421,0,1.588,0.087
		c0.133,0.22,0.117,1.294,0.109,2.079c-0.04,4.376,1.811,7.389,5.505,8.957c4.09,1.732,7.989,1.266,11.267-1.344
		c2.183-1.736,3.266-4.28,3.221-7.561c-0.011-0.793-0.026-1.878,0.08-2.071c0.204-0.127,1.182-0.134,2.045-0.141
		c2.537-0.019,5.074-0.019,7.612-0.005c1,0.004,2.036,0.008,2.229,0.13c0.136,0.2,0.154,1.177,0.174,2.135l0.006,0.432
		c0.006,0.613,0.012,1.247,0.128,1.896c0.879,4.863,5.097,7.787,10.866,7.431c5.072-0.313,8.664-3.794,8.94-8.664
		c0.089-1.583,0.16-2.832,0.438-3.098c0.276-0.263,1.519-0.264,3.091-0.264l3.68-0.009c1.126,0,2.252,0.007,3.377,0.028
		c0.501,0.01,1.339,0.026,1.461,0.063c0.102,0.187,0.124,1.032,0.143,1.655c0.002,0.065,0.004,0.13,0.001,0.19
		c-0.221,4.507,1.637,7.616,5.52,9.239c3.983,1.664,7.854,1.18,11.257-1.398c2.812-2.128,3.161-5.176,3.182-7.285
		c0.008-0.945,0.018-2.124,0.167-2.328c0.203-0.146,1.249-0.149,2.26-0.153l0.945-0.003c2.313-0.009,4.626-0.017,6.937,0.007
		c0.662,0.006,1.568,0.015,1.713,0.069c0.104,0.186,0.126,1.034,0.145,1.659c0.002,0.072,0.004,0.146,0.003,0.193
		c-0.199,4.395,1.566,7.46,5.25,9.111c3.944,1.768,7.817,1.393,11.288-1.084c2.283-1.63,3.402-4.073,3.422-7.472
		c0.006-1.001,0.147-2.136,0.28-2.341c0.195-0.125,1.148-0.127,2.148-0.13v-1L539.965,232.091z"/>
	<path fill="#FF2900" d="M460.55,230.394c-0.002,1.221-0.004,2.474,0.007,3.694c0.017,1.772,1.092,2.912,2.808,2.912h0.008
		c1.73,0,2.812-1.129,2.819-2.897c0.007-1.915,0.008-3.846,0.008-5.761c0-1.607,0-3.223,0.005-4.83
		c0.004-1.817-0.976-2.955-2.62-3.039c-1.88-0.1-3.018,1.071-3.03,3.005c-0.008,1.289-0.006,2.578-0.004,3.867l0.002,1.287
		L460.55,230.394z M463.372,235.938L463.372,235.938L463.372,235.938L463.372,235.938z"/>
	<path fill="#FF2900" d="M495.475,237h0.045c1.701,0,2.773-1.125,2.798-2.889c0.017-1.158,0.014-2.334,0.012-3.492l-0.002-3.452
		c-0.001-1.222-0.002-2.445,0.007-3.666c0.013-1.819-0.966-2.96-2.617-3.049c-1.895-0.098-3.05,1.068-3.05,3
		c0,3.526,0.011,7.085,0.026,10.612C492.701,235.838,493.768,237,495.475,237z M495.52,235.937L495.52,235.937v0.002V235.937z"/>
	<path fill="#FF2900" d="M527.602,236.932l0.127-0.002c1.692-0.053,2.709-1.154,2.718-2.945c0.006-1.258,0.005-2.516,0.003-3.772
		l-0.002-2.938c-0.002-1.284-0.004-2.566,0.003-3.853c0.007-1.762-1.028-2.901-2.703-2.975l-0.16-0.003
		c-1.636,0-2.745,1.139-2.761,2.829c-0.034,3.278-0.034,6.727,0,10.852C524.841,235.855,525.905,236.932,527.602,236.932z
		 M527.602,235.926L527.602,235.926v0.006V235.926z"/>
	<path fill="#FF2900" d="M431.204,237h0.016c0.871,0,1.564-0.284,2.062-0.787c0.747-0.756,0.819-1.876,0.811-2.644
		c-0.014-1.125-0.01-2.259-0.007-3.384l0.003-1.484l-0.016-1.461c-0.004-1.132-0.008-2.266,0.01-3.397
		c0.042-2.624-1.364-3.277-2.55-3.363c-0.103-0.008-0.2-0.012-0.295-0.012c-1.741,0-2.791,1.222-2.81,3.269
		c-0.021,2.623-0.019,5.246-0.016,7.87l0.002,2.18C428.414,236.547,430.162,237,431.204,237z M431.22,235.939L431.22,235.939
		L431.22,235.939L431.22,235.939z"/>
	<path fill="#FF2900" d="M432.128,281.977c1.88,1.41,4.222,2.188,6.594,2.188c2.888,0,5.663-1.146,7.616-3.146
		c3.6-3.685,4.14-9.479,1.229-13.19L447,267.103l-0.769,0.507c-1.931,1.271-1.585,3.112-1.333,4.457l0.026,0.146
		c0.446,2.408-0.403,4.492-2.524,6.195c-1.246,1-2.646,1.417-4.15,1.277l0.506-0.707c0.211-0.294,0.395-0.541,0.558-0.76
		c0.318-0.43,0.57-0.77,0.795-1.15l1.337-2.258c1.74-2.935,3.541-5.97,5.226-9.01c0.092-0.167,0.238-0.343,0.386-0.53
		c0.496-0.628,1.113-1.41,0.949-2.369c-0.097-0.564-0.442-1.039-1.03-1.41c-0.49-0.311-0.943-0.461-1.387-0.461
		c-1.369,0-1.859,1.32-2.153,2.108c-0.088,0.235-0.188,0.5-0.265,0.621c-1.445,2.238-2.792,4.532-4.217,6.96
		c-0.287,0.489-0.578,0.985-0.874,1.487c-0.458-0.724-0.869-1.358-1.35-1.957c-0.381-0.472-0.925-0.629-1.362-0.757
		c-0.122-0.036-0.244-0.069-0.354-0.114l-1.005-0.413l-0.328,1.037c-0.041,0.13-0.107,0.271-0.173,0.415
		c-0.247,0.546-0.554,1.225-0.205,1.892c0.84,1.604,1.764,3.169,2.74,4.826c0.337,0.571,0.682,1.157,1.035,1.763l0.386,0.663
		c-0.408-0.088-0.82-0.203-1.242-0.371c-2.901-1.155-4.332-3.954-3.732-7.302c0.482-2.702,2.849-4.732,5.751-4.938
		c0.188-0.014,0.384-0.016,0.579-0.018c1.086-0.011,3.106-0.031,3.527-2.678l0.127-0.798l-0.755-0.292
		c-1.093-0.421-2.246-0.636-3.426-0.636c-3.746,0-7.271,2.117-9.199,5.525C426.458,272.718,427.762,278.702,432.128,281.977z"/>
	<path fill="#FF2900" d="M499.593,279h0.533c2.229,0,3.533-0.046,4.385-0.898c0.906-0.907,0.904-2.293,0.9-5.052
		c-0.003-0.661,0.005-1.323,0.012-1.984l0.002-0.166c0.022-2.018-1.125-3.236-3.065-3.261c-0.814-0.012-1.629-0.016-2.442-0.016
		l-2.981,0.008c-1.888,0.005-2.898,1.154-3.025,3.152c-0.045,0.682,0.092,1.365,0.092,2.05v0.171c0,2.767-0.161,4.16,0.749,5.075
		C495.654,278.989,496.874,279,499.593,279z M498.563,272.503c0.115-0.125,0.424-0.197,0.844-0.197l0.187,0.004
		c0.755,0.032,0.94,0.108,0.97,0.124c0.134,0.207,0.086,1.07,0.021,1.774c-0.535,0.05-0.935,0.072-1.25,0.072
		c-0.623,0-0.764-0.094-0.766-0.094c-0.021-0.026-0.098-0.164-0.145-0.759C498.387,272.975,498.438,272.637,498.563,272.503z"/>
	<path fill="#FF2900" d="M476.832,278.998l0.242-0.005c1.517-0.062,3.039-0.05,4.56-0.007l0.154,0.002
		c2.122,0,3.326-1.229,3.391-3.458c0.021-0.734,0.03-1.472,0.03-2.205c0.002-5.227-0.475-5.708-5.742-5.724l-1.295-0.008
		c-0.284,0-0.566,0.003-0.849,0.014c-2.985,0.108-3.733,0.869-3.813,3.874c-0.017,0.621-0.01,1.244-0.003,1.866
		c0.007,0.646,0.015,1.293-0.007,1.938c-0.042,1.252,0.24,2.172,0.86,2.813C474.934,278.696,475.766,278.998,476.832,278.998z
		 M479,271.307l0.309,0.998c0.875,0.008,1.086,0.445,1.081,1.177c-0.008,1.012-0.084,1.519-1.303,1.519h0.029l-0.164-0.253
		c-0.495-0.015-0.716-0.213-0.719-0.213c-0.023-0.03-0.232-0.353-0.232-1.299v-0.063l0.104-0.063
		c-0.039-0.335-0.175-0.521-0.119-0.582c0.047-0.053,1.015-0.224,1.015-0.224L479,271.307L479,271.307z"/>
	<path fill="#FF2900" d="M514.286,274.853c-0.024,3.297,0.743,4.07,4.104,4.135c0.176,0.004,0.351,0.006,0.524,0.006l0.852-0.003
		l1.56,0.006c1.701,0,2.787-0.055,3.523-0.794c0.802-0.805,0.979-1.966,0.971-4.279L526,273.13v-0.384
		c0-0.331-0.181-0.662-0.188-0.991c-0.061-3.396-0.878-4.132-4.181-4.139l-1.505-0.01c-0.438-0.004-0.856-0.007-1.219-0.007
		c-1.781,0-3.02,0.061-3.81,0.856c-0.84,0.847-0.835,2.124-0.813,4.441C514.291,273.471,514.291,274.119,514.286,274.853z
		 M520,271.318v0.998c0,0,0.691,0.072,0.807,0.197c0.119,0.129,0.163,0.444,0.128,0.863l-0.008,0.064l0.002,0.065
		c0.029,0.633-0.101,0.802-0.128,0.83c-0.047,0.05-0.199,0.103-0.479,0.103c-0.064,0-0.131-0.003-0.2-0.008
		c-1.032-0.078-1.19-0.342-1.167-1.152c0.021-0.811,0.18-0.955,1.006-0.963L520,271.318L520,271.318z"/>
	<path fill="#FF2900" d="M453.303,273.828c-0.023,2.169-0.039,3.479,0.791,4.321c0.824,0.836,2.104,0.851,4.229,0.851h0.542
		l0.646-0.006l0.548,0.002c0.243,0,0.486-0.002,0.729-0.009c3.13-0.082,3.778-0.711,3.851-3.74c0.02-0.796,0.014-1.594,0.007-2.391
		c-0.006-0.652-0.012-1.306-0.002-1.958c0.016-1.041-0.263-1.857-0.824-2.428c-0.559-0.566-1.36-0.853-2.384-0.853l-0.161,0.002
		c-0.35,0.01-0.697,0.002-1.047-0.006l-0.539-0.01c-3.334-0.039-4.739-0.019-5.64,0.893c-0.787,0.796-0.772,1.884-0.751,3.686
		C453.303,272.664,453.31,273.209,453.303,273.828z M459,271v1.311c0,0,0.646,0.062,0.753,0.171
		c0.063,0.065,0.224,0.295,0.198,1.011c-0.022,0.612-0.064,0.79-0.046,0.795c-0.016,0.008-0.159,0.082-0.748,0.082
		c-0.333,0-0.746-0.023-1.188-0.058c-0.021-1.097,0.042-1.728,0.186-1.88c0.01-0.011,0.122-0.265,0.856-0.278l0.023-1.153H459z"/>
	<path fill="#FF2900" d="M499.593,297h0.533c2.229,0,3.533,0.055,4.385-0.799c0.906-0.906,0.904-2.241,0.9-5.001
		c-0.003-0.661,0.005-1.301,0.012-1.962l0.002-0.148c0.022-2.018-1.124-3.229-3.066-3.256c-0.812-0.013-1.622-0.013-2.435-0.013
		l-2.989,0.01c-1.888,0.006-2.898,1.155-3.025,3.152c-0.045,0.683,0.092,1.367,0.092,2.052v0.171c0,2.767-0.161,4.059,0.749,4.974
		C495.654,297.09,496.874,297,499.593,297z M498.563,290.705c0.115-0.125,0.424-0.197,0.845-0.197l0.186,0.004
		c0.755,0.032,0.94,0.108,0.97,0.123c0.134,0.207,0.086,1.069,0.021,1.774c-0.536,0.05-0.936,0.072-1.25,0.072
		c-0.623,0-0.764-0.094-0.766-0.094c-0.021-0.027-0.098-0.164-0.145-0.759C498.388,291.177,498.438,290.84,498.563,290.705z"/>
	<path fill="#FF2900" d="M476.832,297.2l0.242-0.006c1.517-0.061,3.04-0.05,4.559-0.006l0.154,0.002
		c2.122,0,3.326-1.229,3.391-3.458c0.021-0.733,0.03-1.472,0.03-2.206c0.002-5.226-0.475-5.707-5.762-5.723l-1.273-0.008
		c-0.284,0-0.567,0.004-0.851,0.015c-2.985,0.108-3.733,0.868-3.813,3.873c-0.017,0.621-0.01,1.244-0.003,1.866
		c0.007,0.646,0.016,1.293-0.007,1.938c-0.042,1.253,0.24,2.174,0.86,2.814C474.934,296.898,475.766,297.2,476.832,297.2z
		 M479,289.509l0.311,0.998c0.874,0.008,1.086,0.195,1.079,0.927c-0.008,1.011-0.084,1.269-1.304,1.269l-0.148-0.003
		c-0.495-0.015-0.709-0.088-0.711-0.088c-0.023-0.029-0.227-0.227-0.227-1.173v-0.063l0.104-0.063
		c-0.038-0.336-0.173-0.521-0.117-0.582c0.047-0.053,1.014-0.224,1.014-0.224V289.509L479,289.509z"/>
	<path fill="#FF2900" d="M526,291.332v-0.383c0-0.331-0.181-0.662-0.188-0.99c-0.061-3.397-0.878-4.133-4.181-4.142l-1.504-0.009
		c-0.435-0.004-0.854-0.008-1.214-0.008c-1.784,0-3.023,0.06-3.813,0.857c-0.841,0.848-0.835,2.125-0.814,4.443
		c0.005,0.571,0.008,1.219,0.003,1.951c-0.024,3.298,0.742,4.071,4.102,4.136c0.17,0.003,0.338,0.005,0.508,0.005l0.866-0.004
		l1.565,0.007c1.697,0,2.781-0.054,3.519-0.794c0.802-0.805,0.98-1.966,0.972-4.278L526,291.332z M520,289.521v0.997
		c0,0,0.691,0.072,0.807,0.197c0.119,0.129,0.163,0.444,0.128,0.863l-0.008,0.063l0.002,0.065c0.029,0.632-0.101,0.802-0.128,0.829
		c-0.047,0.05-0.199,0.104-0.48,0.104c-0.063,0-0.131-0.003-0.2-0.008c-1.031-0.077-1.189-0.342-1.166-1.152
		c0.021-0.811,0.18-0.954,1.006-0.963L520,289.521L520,289.521z"/>
	<path fill="#FF2900" d="M453.303,292.029c-0.023,2.171-0.039,3.38,0.791,4.224c0.824,0.836,2.104,0.748,4.229,0.748h0.542
		l0.657,0.094l0.551,0.054c0.237,0,0.477,0.022,0.716,0.018c3.13-0.082,3.778-0.698,3.851-3.729c0.02-0.796,0.014-1.587,0.006-2.384
		c-0.005-0.652-0.011-1.303,0-1.955c0.015-1.041-0.264-1.855-0.825-2.427c-0.559-0.566-1.36-0.854-2.384-0.854l-0.162,0.003
		c-0.343,0.013-0.688,0.003-1.032-0.005l-0.554-0.01c-3.332-0.038-4.739-0.019-5.64,0.893c-0.786,0.797-0.771,1.884-0.75,3.686
		C453.303,290.865,453.31,291.411,453.303,292.029z M459,290v0.513c0,0,0.646,0.063,0.753,0.172c0.063,0.065,0.224,0.295,0.198,1.01
		c-0.022,0.612-0.064,1.006-0.046,1.01c-0.016,0.008-0.159,0.297-0.747,0.297h0.002c-0.333,0-0.748-0.238-1.19-0.271
		c-0.021-1.098,0.042-1.835,0.185-1.986c0.01-0.012,0.122,0.081,0.855,0.066l0.023-0.809C459.035,290,459,290,459,290z"/>
	<path fill="#FF2900" d="M499.593,315h0.533c2.229,0,3.533,0.155,4.385-0.697c0.906-0.907,0.904-2.191,0.9-4.951
		c-0.003-0.66,0.005-1.273,0.012-1.934l0.002-0.14c0.022-2.017-1.124-3.224-3.066-3.25c-0.812-0.012-1.622-0.008-2.435-0.008
		l-2.989,0.011c-1.888,0.006-2.898,1.156-3.025,3.153c-0.045,0.682,0.092,1.368,0.092,2.052v0.171c0,2.768-0.161,3.957,0.749,4.873
		C495.654,315.191,496.874,315,499.593,315z M498.563,308.906c0.115-0.125,0.424-0.196,0.846-0.196l0.185,0.004
		c0.755,0.031,0.94,0.107,0.97,0.123c0.134,0.207,0.086,1.068,0.021,1.773c-0.536,0.05-0.936,0.073-1.25,0.073
		c-0.623,0-0.764-0.094-0.766-0.094c-0.021-0.027-0.098-0.164-0.145-0.76C498.388,309.379,498.438,309.041,498.563,308.906z"/>
	<path fill="#FF2900" d="M476.832,315.402l0.242-0.005c1.517-0.061,3.04-0.05,4.559-0.006l0.154,0.002
		c2.122,0,3.326-1.229,3.391-3.458c0.021-0.734,0.03-1.472,0.03-2.206c0.002-5.227-0.475-5.707-5.718-5.722l-1.324-0.01
		c-0.282,0-0.564,0.005-0.844,0.016c-2.985,0.107-3.733,0.868-3.813,3.873c-0.017,0.621-0.01,1.244-0.003,1.866
		c0.007,0.646,0.016,1.293-0.007,1.938c-0.042,1.252,0.24,2.173,0.86,2.814C474.934,315.101,475.766,315.402,476.832,315.402z
		 M479,307.711l0.311,0.998c0.874,0.008,1.086,0.194,1.079,0.927c-0.008,1.011-0.084,1.268-1.304,1.268l-0.148-0.003
		c-0.495-0.014-0.709-0.087-0.711-0.087c-0.023-0.03-0.227-0.227-0.227-1.173v-0.063l0.104-0.063
		c-0.038-0.336-0.173-0.521-0.117-0.582c0.047-0.053,1.014-0.224,1.014-0.224V307.711L479,307.711z"/>
	<path fill="#FF2900" d="M526,309.534v-0.384c0-0.331-0.181-0.662-0.188-0.99c-0.061-3.396-0.878-4.133-4.181-4.141l-1.504-0.009
		c-0.435-0.004-0.854-0.008-1.214-0.008c-1.784,0-3.023,0.06-3.813,0.856c-0.841,0.848-0.835,2.125-0.814,4.444
		c0.005,0.571,0.008,1.219,0.003,1.951c-0.024,3.298,0.742,4.07,4.102,4.136c0.183,0.004,0.362,0.005,0.544,0.005l0.831-0.003
		l1.554,0.006c1.703,0,2.792-0.053,3.529-0.794c0.802-0.804,0.979-1.966,0.972-4.279L526,309.534z M520,307.723v0.997
		c0,0,0.691,0.071,0.807,0.196c0.119,0.13,0.163,0.444,0.128,0.863l-0.008,0.064l0.002,0.064c0.029,0.632-0.101,0.803-0.128,0.829
		c-0.047,0.05-0.199,0.104-0.48,0.104c-0.063,0-0.131-0.003-0.2-0.008c-1.031-0.077-1.189-0.343-1.166-1.152
		c0.021-0.812,0.18-0.954,1.006-0.963L520,307.723L520,307.723z"/>
	<path fill="#FF2900" d="M453.303,310.231c-0.023,2.17-0.039,3.278,0.791,4.121c0.824,0.836,2.104,0.646,4.229,0.646h0.542
		l0.652,0.196l0.522,0.104c0.25,0,0.499,0.049,0.749,0.043c3.13-0.082,3.778-0.688,3.851-3.716c0.02-0.797,0.014-1.581,0.006-2.38
		c-0.005-0.651-0.011-1.298,0-1.949c0.015-1.041-0.264-1.854-0.825-2.426c-0.559-0.565-1.36-0.853-2.384-0.853l-0.162,0.003
		c-0.343,0.013-0.688,0.004-1.032-0.004l-0.554-0.01c-3.332-0.039-4.739-0.02-5.64,0.893c-0.786,0.796-0.771,1.883-0.75,3.686
		C453.303,309.067,453.31,309.613,453.303,310.231z M459,308v0.715c0,0,0.646,0.062,0.753,0.172c0.063,0.064,0.224,0.295,0.198,1.01
		c-0.022,0.612-0.064,0.903-0.046,0.908c-0.016,0.008-0.159,0.195-0.747,0.195h0.002c-0.333,0-0.748-0.138-1.19-0.172
		c-0.021-1.097,0.042-1.783,0.185-1.937c0.01-0.011,0.122,0.006,0.855-0.008l0.023-0.886C459.035,308,459,308,459,308z"/>
	<path fill="#FF2900" d="M443.627,286.673c-0.558-0.566-1.36-0.854-2.383-0.854l-0.163,0.002c-0.341,0.013-0.688,0.004-1.032-0.005
		l-0.553-0.01c-3.332-0.038-4.74-0.019-5.64,0.894c-0.787,0.796-0.773,1.884-0.751,3.686c0.006,0.48,0.013,1.026,0.006,1.646
		c-0.024,2.17-0.039,3.379,0.791,4.223c0.823,0.836,2.104,0.748,4.228,0.748h0.542l0.657,0.094l0.552,0.054
		c0.238,0,0.478,0.022,0.716,0.018c3.13-0.082,3.778-0.698,3.852-3.729c0.019-0.793,0.013-1.581,0.006-2.375
		c-0.005-0.655-0.011-1.309-0.001-1.964C444.467,288.057,444.189,287.243,443.627,286.673z M439,290v0.513
		c0,0,0.55,0.063,0.657,0.172c0.063,0.065,0.176,0.295,0.15,1.01c-0.021,0.612-0.088,1.006-0.069,1.01
		c-0.016,0.008-0.17,0.297-0.758,0.297h-0.005c-0.333,0-0.75-0.238-1.192-0.271c-0.021-1.098,0.04-1.835,0.183-1.986
		c0.01-0.012,0.121,0.081,0.856,0.066l0.118-0.809C438.939,290,439,290,439,290z"/>
	<path fill="#FF2900" d="M443.627,304.875c-0.558-0.566-1.36-0.854-2.383-0.854l-0.163,0.002c-0.341,0.013-0.688,0.003-1.032-0.005
		l-0.553-0.01c-3.332-0.039-4.74-0.02-5.64,0.893c-0.787,0.796-0.773,1.884-0.751,3.687c0.006,0.479,0.013,1.025,0.006,1.646
		c-0.024,2.169-0.039,3.277,0.791,4.12c0.823,0.836,2.104,0.647,4.228,0.647h0.542l0.653,0.195l0.521,0.104
		c0.25,0,0.499,0.049,0.749,0.043c3.13-0.082,3.778-0.688,3.852-3.716c0.019-0.795,0.013-1.575,0.006-2.37
		c-0.005-0.655-0.011-1.305-0.001-1.959C444.467,306.256,444.189,305.445,443.627,304.875z M439,308v0.715
		c0,0,0.55,0.062,0.657,0.172c0.063,0.064,0.176,0.295,0.15,1.01c-0.021,0.612-0.088,0.903-0.069,0.908
		c-0.016,0.008-0.17,0.195-0.758,0.195h-0.005c-0.333,0-0.75-0.138-1.192-0.172c-0.021-1.097,0.04-1.783,0.183-1.937
		c0.01-0.011,0.121,0.006,0.856-0.008l0.118-0.886C438.939,308,439,308,439,308z"/>
</g>
</svg>
