<?xml version="1.0" encoding="utf-8"?>
<!-- Generator: Adobe Illustrator 16.0.0, SVG Export Plug-In . SVG Version: 6.00 Build 0)  -->
<!DOCTYPE svg PUBLIC "-//W3C//DTD SVG 1.1//EN" "http://www.w3.org/Graphics/SVG/1.1/DTD/svg11.dtd">
<svg version="1.1" id="Calque_1" xmlns="http://www.w3.org/2000/svg" xmlns:xlink="http://www.w3.org/1999/xlink" x="0px" y="0px"
	 width="35.378px" height="36px" viewBox="140.59 202.188 35.378 36" enable-background="new 140.59 202.188 35.378 36"
	 xml:space="preserve">
<g>
	<path fill="#FF2900" d="M169.695,207.837c-0.919,0-1.79,0.203-2.577,0.558c-1.21-3.606-4.614-6.207-8.628-6.207
		c-4.084,0-7.54,2.689-8.692,6.395c-0.111-0.061-0.226-0.117-0.342-0.17l-0.012-0.018c-0.787-0.354-1.658-0.558-2.577-0.558
		c-0.006,0-0.012,0-0.018,0c-0.005,0-0.011,0-0.015,0c-0.083,0-0.159,0.002-0.229,0.006c-3.345,0.138-6.015,2.893-6.015,6.27
		c0,3.468,2.81,6.277,6.276,6.277c0.202,0,0.203-0.013,0.4-0.031l-0.003,2.6l-0.01,0.036v0.092v11.312h5.926v-12.683
		c0-0.313,0.252-0.565,0.565-0.565c0.312,0,0.564,0.253,0.564,0.565v12.683h3.389v-14.314c0-0.313,0.253-0.564,0.565-0.564
		s0.564,0.252,0.564,0.564v14.314h3.39v-12.683c0-0.313,0.253-0.565,0.565-0.565c0.313,0,0.565,0.253,0.565,0.565v12.683h5.749
		V220.36c0.196,0.019,0.395,0.031,0.597,0.031c3.466,0,6.276-2.81,6.276-6.277C175.971,210.648,173.161,207.837,169.695,207.837z"/>
	<path fill="#FF2900" d="M168.629,235.688h-20.765c-0.69,0-1.25,0.561-1.25,1.25c0,0.69,0.56,1.25,1.25,1.25h20.765
		c0.689,0,1.25-0.559,1.25-1.25C169.879,236.247,169.318,235.688,168.629,235.688z"/>
</g>
</svg>
