<?xml version="1.0" encoding="utf-8"?>
<!-- Generator: Adobe Illustrator 16.0.0, SVG Export Plug-In . SVG Version: 6.00 Build 0)  -->
<!DOCTYPE svg PUBLIC "-//W3C//DTD SVG 1.1//EN" "http://www.w3.org/Graphics/SVG/1.1/DTD/svg11.dtd">
<svg version="1.1" id="Calque_1" xmlns="http://www.w3.org/2000/svg" xmlns:xlink="http://www.w3.org/1999/xlink" x="0px" y="0px"
	 width="137px" height="120px" viewBox="412 232 137 120" enable-background="new 412 232 137 120" xml:space="preserve">
<g>
	<path fill="#FF2900" d="M538,352H430c-5.86,0-11-4.029-11-8.623V240.313c0-4.506,5.038-8.313,11-8.313h108
		c5.963,0,11,3.807,11,8.313v103.064C549,347.971,543.859,352,538,352z M430,236c-3.942,0-7,2.317-7,4.313v103.064
		c0,2.094,3.123,4.623,7,4.623h108c3.878,0,7-2.529,7-4.623V240.313c0-1.994-3.058-4.313-7-4.313H430z"/>
	<path fill="#FF2900" d="M531.417,335H441.16c-5.223,0-9.16-2.662-9.16-6.193v-73.788c0-3.486,3.853-6.019,9.16-6.019h90.257
		c5.929,0,8.583,3.022,8.583,6.019v73.788C540,331.788,537.314,335,531.417,335z M441.16,253c-3.388,0-5.16,1.313-5.16,2.019v73.788
		c0,0.873,2.058,2.193,5.16,2.193h90.257c2.869,0,4.583-1.115,4.583-2.193v-73.788c0-1.15-1.971-2.019-4.583-2.019H441.16z"/>
	<path fill="#FF2900" d="M424.245,245h-0.995h-8.8h-0.2c-1.244,0-2.25,0.592-2.25,1.5s1.006,1.5,2.25,1.5h0.2h8.8h0.995
		c1.354,0,2.45-0.592,2.45-1.5S425.599,245,424.245,245z"/>
	<path fill="#FF2900" d="M424.245,263h-0.995h-8.8h-0.2c-1.244,0-2.25,0.592-2.25,1.5s1.006,1.5,2.25,1.5h0.2h8.8h0.995
		c1.354,0,2.45-0.592,2.45-1.5S425.599,263,424.245,263z"/>
	<path fill="#FF2900" d="M424.245,281h-0.995h-8.8h-0.2c-1.244,0-2.25,0.591-2.25,1.5c0,0.907,1.006,1.5,2.25,1.5h0.2h8.8h0.995
		c1.354,0,2.45-0.593,2.45-1.5C426.695,281.591,425.599,281,424.245,281z"/>
	<path fill="#FF2900" d="M424.245,299h-0.995h-8.8h-0.2c-1.244,0-2.25,1.092-2.25,2c0,0.906,1.006,2,2.25,2h0.2h8.8h0.995
		c1.354,0,2.45-1.094,2.45-2C426.695,300.092,425.599,299,424.245,299z"/>
	<path fill="#FF2900" d="M424.245,317h-0.995h-8.8h-0.2c-1.244,0-2.25,1.093-2.25,2s1.006,2,2.25,2h0.2h8.8h0.995
		c1.354,0,2.45-1.093,2.45-2S425.599,317,424.245,317z"/>
	<path fill="#FF2900" d="M424.245,336h-0.995h-8.8h-0.2c-1.244,0-2.25,0.593-2.25,1.5c0,0.906,1.006,1.5,2.25,1.5h0.2h8.8h0.995
		c1.354,0,2.45-0.594,2.45-1.5C426.695,336.593,425.599,336,424.245,336z"/>
	<path fill="#FF2900" d="M504.566,327.85h-41.463c-1.159,0-2.1-0.94-2.1-2.1v-35.125c-7.119-0.586-12.711-5.932-12.711-12.415
		c0-6.876,6.287-12.472,14.014-12.472c1.531,0,3.058,0.227,4.5,0.659c3.118-6.056,9.933-9.998,17.622-9.998
		c7.554,0,14.338,3.866,17.509,9.798c1.226-0.305,2.48-0.459,3.755-0.459c7.729,0,14.018,5.596,14.018,12.472
		c0,6.583-5.767,11.992-13.043,12.438v35.102C506.666,326.908,505.726,327.85,504.566,327.85z M465.204,323.65h37.263v-35.116
		c0-0.582,0.241-1.139,0.667-1.534c0.425-0.397,0.987-0.594,1.577-0.562c0.321,0.022,0.651,0.041,0.98,0.041
		c5.414,0,9.817-3.709,9.817-8.269c0-4.563-4.403-8.272-9.817-8.272c-1.416,0-2.805,0.261-4.125,0.775
		c-0.521,0.203-1.101,0.189-1.609-0.036c-0.511-0.227-0.911-0.646-1.111-1.166c-2.053-5.331-7.847-8.912-14.417-8.912
		c-6.618,0-12.589,3.772-14.52,9.174c-0.199,0.558-0.624,1.004-1.169,1.231s-1.162,0.214-1.697-0.036
		c-1.441-0.674-3.08-1.031-4.736-1.031c-5.411,0-9.813,3.71-9.813,8.272c0,4.56,4.403,8.269,9.813,8.269
		c0.234,0,0.467-0.007,0.696-0.018c0.573-0.031,1.134,0.181,1.549,0.577c0.416,0.396,0.651,0.944,0.651,1.52L465.204,323.65
		L465.204,323.65z"/>
	<path fill="#FF2900" d="M484.002,320.259c-1.159,0-2.1-0.94-2.1-2.101v-28.496c0-1.159,0.939-2.101,2.1-2.101s2.1,0.94,2.1,2.101
		v28.496C486.102,319.318,485.161,320.259,484.002,320.259z"/>
	<path fill="#FF2900" d="M494.257,318.911c-1.159,0-2.1-0.939-2.1-2.1v-23.964c0-1.159,0.939-2.1,2.1-2.1s2.101,0.939,2.101,2.1
		v23.964C496.355,317.972,495.416,318.911,494.257,318.911z"/>
	<path fill="#FF2900" d="M472.813,318.911c-1.159,0-2.1-0.939-2.1-2.1v-23.964c0-1.159,0.94-2.1,2.1-2.1
		c1.16,0,2.101,0.939,2.101,2.1v23.964C474.913,317.972,473.973,318.911,472.813,318.911z"/>
	<path fill="#FF2900" d="M504.566,320.411h-41.463c-1.159,0-2.099-0.939-2.099-2.1s0.939-2.1,2.099-2.1h41.463
		c1.158,0,2.1,0.939,2.1,2.1S505.726,320.411,504.566,320.411z"/>
</g>
</svg>
