<?xml version="1.0" encoding="utf-8"?>
<!-- Generator: Adobe Illustrator 16.0.0, SVG Export Plug-In . SVG Version: 6.00 Build 0)  -->
<!DOCTYPE svg PUBLIC "-//W3C//DTD SVG 1.1//EN" "http://www.w3.org/Graphics/SVG/1.1/DTD/svg11.dtd">
<svg version="1.1" id="Calque_1" xmlns="http://www.w3.org/2000/svg" xmlns:xlink="http://www.w3.org/1999/xlink" x="0px" y="0px"
	 width="133.998px" height="101.491px" viewBox="263.81 218.002 133.998 101.491"
	 enable-background="new 263.81 218.002 133.998 101.491" xml:space="preserve">
<path fill="#FF2900" d="M319.805,236.824c-4.606-4.694-4.726-8.798-0.385-13.305c0.196-0.203,0.425-0.396,0.655-0.588
	c0.396-0.331,0.804-0.672,0.897-1.001c0.229-0.814,0.297-1.984-0.066-2.756c-0.144-0.306-0.707-0.571-1.252-0.828
	c-0.232-0.109-0.471-0.222-0.702-0.345c-0.271,0.172-0.536,0.333-0.792,0.489c-0.649,0.395-1.263,0.769-1.78,1.207
	c-3.223,2.735-5.01,6.29-5.032,10.012c-0.024,3.956,1.914,7.832,5.457,10.914c6.873,5.978,7.069,8.43,1.231,15.435
	c-0.42,0.503-0.405,1.535-0.391,2.532c0.005,0.342,0.01,0.692-0.001,1.033c0.302,0.028,0.607,0.07,0.906,0.112
	c0.517,0.072,1.005,0.141,1.449,0.141l0,0c0.422,0,0.743-0.064,0.981-0.196c4.653-2.571,7.289-9.281,5.423-13.807
	C324.938,242.319,322.107,239.17,319.805,236.824z"/>
<path fill="#FF2900" d="M334.174,237.531c-2.972-2.438-4.442-4.613-4.629-6.848c-0.188-2.258,0.878-4.582,3.456-7.537
	c0.559-0.64,0.663-1.825,0.764-2.971c0.031-0.354,0.063-0.712,0.108-1.065c-0.37,0.029-0.747,0.042-1.116,0.057
	c-1.18,0.043-2.4,0.087-3.071,0.628c-3.181,2.566-4.966,6.016-5.028,9.711c-0.068,4.063,1.886,8.02,5.5,11.143
	c6.731,5.814,6.92,8.413,1.12,15.443c-0.408,0.494-0.445,1.443-0.48,2.36c-0.012,0.304-0.024,0.614-0.049,0.919
	c0.341,0.053,0.69,0.125,1.032,0.193c0.61,0.125,1.241,0.254,1.748,0.254l0,0c0.336,0,0.582-0.055,0.752-0.168
	c3.729-2.479,5.767-6.125,6.056-10.837C340.131,244.415,338.173,240.812,334.174,237.531z"/>
<path fill="#FF2900" d="M307.778,237.813c-0.515-0.438-1.029-0.878-1.52-1.34c-2.193-2.063-3.333-4.198-3.388-6.347
	c-0.054-2.116,0.944-4.257,2.965-6.362c0.211-0.22,0.464-0.4,0.709-0.574c0.275-0.195,0.617-0.439,0.662-0.614
	c0.182-0.719,0.718-2.829,0.426-3.191c-0.431-0.347-1.218-0.526-2.331-0.526c-0.451,0-0.902,0.028-1.316,0.063
	c-0.352,0.027-0.842,0.542-1.236,0.956c-0.138,0.144-0.273,0.286-0.405,0.413c-2.847,2.751-4.327,6.047-4.281,9.532
	c0.05,3.857,2.017,7.76,5.538,10.988c1.546,1.418,2.827,3.104,4.183,4.887c0.64,0.843,1.298,1.709,2.013,2.583
	c0.142,0.175,0.151,0.422,0.021,0.605c-0.613,0.868-1.195,1.65-1.739,2.382c-1.146,1.542-2.136,2.874-2.884,4.295
	c-0.452,0.86-0.592,1.905-0.74,3.012c-0.042,0.308-0.083,0.615-0.13,0.919c0.341,0.007,0.694,0.028,1.046,0.051
	c0.407,0.025,0.814,0.052,1.204,0.052c0.772,0,1.286-0.111,1.619-0.349c3.051-2.187,4.958-5.354,5.368-8.917
	c0.421-3.657-0.762-7.286-3.333-10.218C309.5,239.281,308.625,238.535,307.778,237.813z"/>
<path fill="#FF2900" d="M388.346,267.144l-15.354-0.006c-8.67-0.004-17.34-0.008-26.012-0.008c-21.171,0-37.346,0.024-52.447,0.081
	c-3.259,0-5.142-1.049-6.773-3.742c-4.543-7.503-9.352-15.021-14.001-22.292l-2.208-3.463c-1.157-1.847-2.469-3.941-4.277-3.941
	c-0.604,0-1.267,0.231-1.968,0.689c-2.572,1.675-1.433,3.931,0.456,6.935l0.295,0.472c3.648,5.866,7.317,11.721,10.738,17.179
	l3.689,5.889c0.077,0.122,0.097,0.271,0.055,0.409c-0.343,1.141-0.711,2.145-1.066,3.117c-0.659,1.801-1.228,3.355-1.259,4.863
	c-0.241,11.679-0.17,23.059-0.07,32.65c0.084,8.025,5.252,13.271,13.166,13.366c8.502,0.102,17.231,0.151,25.944,0.151
	c8.371,0,16.97-0.047,25.558-0.141c8.114-0.088,13.212-5.325,13.305-13.668c0.1-8.911,0.162-16.951-0.104-25.103
	c-0.051-1.558-1.519-4.032-2.249-4.117c-0.822-0.093-1.389,0.036-1.75,0.398c-0.652,0.657-0.642,2.088-0.632,3.35l0.002,0.498
	c-0.004,2.783,0.001,5.564,0.007,8.346c0.011,5.229,0.022,10.633-0.039,15.95c-0.066,5.822-2.951,9.479-7.914,9.623
	c-3.184,0.091-6.621,0.37-10.814,0.37c-0.001,0-0.002,0-0.003,0c-2.581,0-5.161-0.253-7.739-0.269
	c-2.571-0.016-5.141-0.149-7.706-0.149c-0.248,0-0.458-0.24-0.495-0.484c-0.028-0.191-0.064-0.378-0.094-0.512
	c-0.066-0.297-0.123-0.565-0.036-0.84c3.594-11.215-2.378-23.588-13.313-27.575c-0.6-0.219-2.081-0.855-2.867-2.001
	c-1.523-2.222-2.919-4.47-4.535-7.07c-0.629-1.013-1.285-2.068-1.985-3.181c-0.094-0.149-0.102-0.338-0.021-0.496
	c0.081-0.157,0.239-0.26,0.416-0.271c0.692-0.041,1.273-0.082,1.782-0.116c0.938-0.066,1.616-0.113,2.318-0.114
	c29.736-0.009,59.471-0.01,89.207,0.006c1.157,0,2.394,0,3.459,0.403c0.813,0.306,1.791,1.518,1.676,2.337
	c-0.138,0.993-0.973,2.138-1.824,2.499c-0.737,0.313-1.558,0.354-2.336,0.354l-1.108-0.011l-1.845,0.002
	c-1.585,0-3.171-0.005-4.757-0.01c-1.584-0.005-3.169-0.011-4.753-0.011c-3.105,0-7.194,0.018-11.286,0.158
	c-0.753,0.026-1.605,0.767-2.428,1.481c-0.266,0.23-0.536,0.466-0.811,0.685c0.25,0.256,0.498,0.53,0.739,0.8
	c0.736,0.82,1.498,1.669,2.132,1.688c10.105,0.304,18.221,0.313,25.925,0.036c2.516-0.089,4.644-1.111,5.992-2.877
	c1.374-1.798,1.81-4.151,1.229-6.624C396.659,269.008,393.645,267.145,388.346,267.144z M294.694,293.214
	c-0.637,6.979,3.777,12.112,8.178,16.215c0.859,0.802,1.787,1.521,2.86,2.354c0.527,0.409,1.083,0.841,1.673,1.315
	c0.166,0.133,0.229,0.354,0.159,0.556s-0.26,0.334-0.472,0.334c-1.818,0-3.601-0.022-5.356,0.008
	c-1.708,0.031-3.39,0.006-5.053,0.006h-0.001c-3.212,0-5.688-0.059-8.025-0.313c-2.046-0.223-5.084-3.444-5.159-5.493
	c-0.323-8.856-0.283-17.858-0.245-26.576c0.013-2.908,0.025-5.81,0.025-8.717c0-0.208,0.129-0.392,0.325-0.465l0.964-0.359
	c0.256-0.094,0.541,0.031,0.641,0.285c0.975,2.475,2.598,4.684,4.168,6.82C292.262,283.108,295.246,287.17,294.694,293.214z"/>
</svg>
